<?xml version="1.0" standalone="no"?>
<!DOCTYPE svg PUBLIC "-//W3C//DTD SVG 20010904//EN"
 "http://www.w3.org/TR/2001/REC-SVG-20010904/DTD/svg10.dtd">
<svg version="1.0" xmlns="http://www.w3.org/2000/svg"
 width="200.000000pt" height="200.000000pt" viewBox="0 0 200.000000 200.000000"
 preserveAspectRatio="xMidYMid meet">

<g transform="translate(0.000000,200.000000) scale(0.100000,-0.100000)"
fill="#2B4074" stroke="none">
<path d="M618 1975 c-75 -19 -170 -59 -235 -101 -29 -19 -57 -34 -62 -34 -4 0
-41 -33 -80 -72 -242 -245 -305 -621 -155 -922 60 -120 158 -230 255 -286 149
-87 248 -119 394 -127 169 -9 333 32 466 118 33 22 63 39 66 39 4 0 139 -133
301 -295 162 -162 299 -295 305 -295 18 0 127 113 127 132 0 9 -133 149 -296
311 l-295 295 39 61 c110 170 148 412 96 613 -30 119 -111 267 -187 346 -111
115 -246 189 -393 218 -94 17 -270 17 -346 -1z m369 -86 c215 -55 386 -218
467 -448 28 -79 30 -97 31 -216 0 -149 -15 -213 -76 -335 -68 -136 -178 -245
-314 -310 -234 -112 -534 -88 -725 60 -19 15 -43 29 -52 33 -24 9 -121 130
-156 195 -41 77 -71 189 -79 292 -7 107 15 225 61 325 42 90 131 221 165 243
14 9 46 32 70 50 168 127 390 167 608 111z"/>
</g>
</svg>
