<?xml version="1.0" standalone="no"?>
<!DOCTYPE svg PUBLIC "-//W3C//DTD SVG 20010904//EN"
 "http://www.w3.org/TR/2001/REC-SVG-20010904/DTD/svg10.dtd">
<svg version="1.0" xmlns="http://www.w3.org/2000/svg"
 width="200.000000pt" height="200.000000pt" viewBox="0 0 200.000000 200.000000"
 preserveAspectRatio="xMidYMid meet">

<g transform="translate(0.000000,200.000000) scale(0.100000,-0.100000)"
fill="#2B4074" stroke="none">
<path d="M810 1966 c-208 -44 -384 -140 -526 -287 -163 -170 -252 -362 -273
-587 -28 -301 79 -586 298 -795 95 -91 145 -125 263 -182 155 -75 223 -89 433
-89 168 0 186 2 270 28 352 107 604 363 696 706 31 112 33 358 6 460 -55 201
-132 337 -266 471 -128 126 -278 213 -446 259 -102 28 -355 37 -455 16z m426
-91 c681 -173 915 -1015 419 -1510 -297 -298 -749 -356 -1121 -144 -150 85
-312 267 -378 425 -52 125 -70 218 -69 359 1 153 21 244 83 373 49 102 88 160
159 236 112 118 248 203 400 251 162 50 335 54 507 10z"/>
<path d="M955 1501 c-50 -21 -81 -86 -65 -137 17 -51 63 -84 117 -84 38 0 50
5 79 34 26 26 34 42 34 70 0 92 -83 150 -165 117z"/>
<path d="M847 1193 c-19 -19 -5 -33 33 -33 l40 0 0 -314 0 -315 -37 -3 c-27
-2 -39 -8 -41 -20 -3 -17 10 -18 157 -18 154 0 161 1 161 20 0 17 -7 20 -40
20 l-40 0 0 335 0 335 -113 0 c-63 0 -117 -3 -120 -7z"/>
</g>
</svg>
